<?xml version="1.0" encoding="utf-8"?>
<!-- Generator: Adobe Illustrator 27.1.1, SVG Export Plug-In . SVG Version: 6.00 Build 0)  -->
<svg version="1.1" id="Слой_1" xmlns="http://www.w3.org/2000/svg" xmlns:xlink="http://www.w3.org/1999/xlink" x="0px" y="0px"
	 viewBox="0 0 100 100" style="enable-background:new 0 0 100 100;" xml:space="preserve">
<style type="text/css">
	.st0{fill:#2583BC;}
	.st1{fill-rule:evenodd;clip-rule:evenodd;fill:#2583BC;}
</style>
<g>
	<g>
		<path class="st0" d="M50,2.8C76,2.8,97.2,24,97.2,50S76,97.2,50,97.2S2.8,76,2.8,50S24,2.8,50,2.8 M50,0C22.4,0,0,22.4,0,50
			s22.4,50,50,50s50-22.4,50-50S77.6,0,50,0L50,0z"/>
	</g>
	<g>
		<path class="st1" d="M50,25.9c4.1,0,7.4,3.3,7.4,7.4c0,4.1-3.3,7.4-7.4,7.4c-4.1,0-7.4-3.3-7.4-7.4C42.6,29.2,45.9,25.9,50,25.9
			L50,25.9z M50,51.1c9.8,0,17.8-8,17.8-17.8c0-9.8-8-17.8-17.8-17.8s-17.8,8-17.8,17.8C32.2,43.1,40.2,51.1,50,51.1z"/>
		<path class="st1" d="M57.2,65.7c3.6-0.8,7.1-2.3,10.3-4.3c2.4-1.5,3.2-4.8,1.6-7.2c-1.5-2.4-4.8-3.2-7.2-1.6
			c-7.3,4.6-16.7,4.6-24,0c-2.4-1.5-5.7-0.8-7.2,1.6c-1.5,2.4-0.8,5.7,1.6,7.2c3.2,2,6.7,3.5,10.3,4.3l-10,10c-2,2-2,5.3,0,7.4
			c1,1,2.4,1.5,3.7,1.5c1.3,0,2.7-0.5,3.7-1.5l9.8-9.8l9.8,9.8c2,2,5.3,2,7.4,0c2-2,2-5.3,0-7.4L57.2,65.7z"/>
	</g>
</g>
</svg>
