<?xml version="1.0" encoding="utf-8"?>
<!-- Generator: Adobe Illustrator 27.1.1, SVG Export Plug-In . SVG Version: 6.00 Build 0)  -->
<svg version="1.1" id="Слой_1" xmlns="http://www.w3.org/2000/svg" xmlns:xlink="http://www.w3.org/1999/xlink" x="0px" y="0px"
	 viewBox="0 0 100 100" style="enable-background:new 0 0 100 100;" xml:space="preserve">
<style type="text/css">
	.st0{fill:#2583BC;}
	.st1{fill-rule:evenodd;clip-rule:evenodd;fill:#2583BC;}
</style>
<g>
	<path class="st0" d="M50,2.8C76,2.8,97.2,24,97.2,50S76,97.2,50,97.2S2.8,76,2.8,50S24,2.8,50,2.8 M50,0C22.4,0,0,22.4,0,50
		s22.4,50,50,50s50-22.4,50-50S77.6,0,50,0L50,0z"/>
</g>
<path id="Path-3" class="st1" d="M21,48.5c16.2-7.1,27-11.7,32.4-14C68.8,28.1,72,27,74.1,27c0.5,0,1.5,0.1,2.2,0.6
	c0.6,0.5,0.7,1.1,0.8,1.5s0.2,1.4,0.1,2.2c-0.8,8.8-4.5,30.1-6.3,39.9c-0.8,4.2-2.3,5.6-3.8,5.7c-3.2,0.3-5.7-2.1-8.8-4.2
	c-4.9-3.2-7.7-5.2-12.4-8.3c-5.5-3.6-1.9-5.6,1.2-8.8c0.8-0.8,15-13.8,15.3-15c0-0.1,0.1-0.7-0.3-1c-0.3-0.3-0.8-0.2-1.2-0.1
	c-0.5,0.1-8.3,5.3-23.4,15.5c-2.2,1.5-4.2,2.3-6,2.2c-2,0-5.8-1.1-8.6-2c-3.5-1.1-6.2-1.7-6-3.6C17,50.6,18.4,49.6,21,48.5z"/>
</svg>
