<?xml version="1.0" encoding="utf-8"?>
<!-- Generator: Adobe Illustrator 27.1.1, SVG Export Plug-In . SVG Version: 6.00 Build 0)  -->
<svg version="1.1" id="Слой_1" xmlns="http://www.w3.org/2000/svg" xmlns:xlink="http://www.w3.org/1999/xlink" x="0px" y="0px"
	 viewBox="0 0 100 100" style="enable-background:new 0 0 100 100;" xml:space="preserve">
<style type="text/css">
	.st0{fill:#2583BC;}
</style>
<g>
	<g>
		<path class="st0" d="M50,2.8C76,2.8,97.2,24,97.2,50S76,97.2,50,97.2S2.8,76,2.8,50S24,2.8,50,2.8 M50,0C22.4,0,0,22.4,0,50
			s22.4,50,50,50s50-22.4,50-50S77.6,0,50,0L50,0z"/>
	</g>
	<g>
		<g>
			<path class="st0" d="M82.4,64.8c-0.2-0.3-1.3-2.7-6.6-7.6c-5.5-5.1-4.8-4.3,1.9-13.2c4.1-5.4,5.7-8.7,5.2-10.1
				c-0.5-1.3-3.5-1-3.5-1L69.5,33c0,0-0.7-0.1-1.3,0.2c-0.5,0.3-0.9,1.1-0.9,1.1s-1.6,4.2-3.7,7.7c-4.4,7.5-6.2,7.9-6.9,7.4
				c-1.7-1.1-1.3-4.4-1.3-6.7c0-7.3,1.1-10.3-2.1-11.1c-1.1-0.3-1.9-0.4-4.6-0.5c-3.5,0-6.5,0-8.2,0.8c-1.1,0.6-2,1.8-1.5,1.9
				c0.7,0.1,2.1,0.4,2.9,1.5c1,1.4,1,4.5,1,4.5s0.6,8.6-1.4,9.6c-1.3,0.7-3.2-0.8-7.1-7.6c-2-3.5-3.5-7.3-3.5-7.3s-0.3-0.7-0.8-1.1
				c-0.6-0.5-1.5-0.6-1.5-0.6l-9.4,0.1c0,0-1.4,0-1.9,0.7c-0.5,0.5,0,1.7,0,1.7s7.4,17.3,15.7,26c7.7,8,16.4,7.5,16.4,7.5h3.9
				c0,0,1.2-0.1,1.8-0.8c0.6-0.6,0.5-1.7,0.5-1.7S55.5,61,58,60.2c2.4-0.8,5.5,5.1,8.8,7.4c2.5,1.7,4.4,1.3,4.4,1.3l8.8-0.1
				C80,68.7,84.6,68.4,82.4,64.8z"/>
		</g>
	</g>
</g>
</svg>
