<?xml version="1.0" encoding="utf-8"?>
<!-- Generator: Adobe Illustrator 27.1.1, SVG Export Plug-In . SVG Version: 6.00 Build 0)  -->
<svg version="1.1" id="Слой_1" xmlns="http://www.w3.org/2000/svg" xmlns:xlink="http://www.w3.org/1999/xlink" x="0px" y="0px"
	 viewBox="0 0 100 100" style="enable-background:new 0 0 100 100;" xml:space="preserve">
<style type="text/css">
	.st0{fill:#2583BC;}
</style>
<g>
	<g>
		<path class="st0" d="M50,2.8C76,2.8,97.2,24,97.2,50S76,97.2,50,97.2S2.8,76,2.8,50S24,2.8,50,2.8 M50,0C22.4,0,0,22.4,0,50
			s22.4,50,50,50s50-22.4,50-50S77.6,0,50,0L50,0z"/>
	</g>
	<path class="st0" d="M78.8,35.6C78.1,33,76,31,73.5,30.3C68.8,29,50,29,50,29s-18.8,0-23.5,1.2c-2.5,0.7-4.6,2.8-5.3,5.3
		C20,40.3,20,50,20,50s0,9.8,1.2,14.4c0.7,2.6,2.7,4.6,5.3,5.3C31.3,71,50,71,50,71s18.8,0,23.5-1.2c2.6-0.7,4.6-2.7,5.3-5.3
		C80,59.8,80,50,80,50S80,40.3,78.8,35.6z M44,59V41l15.6,9L44,59z"/>
</g>
</svg>
