<?xml version="1.0" encoding="utf-8"?>
<!-- Generator: Adobe Illustrator 27.1.1, SVG Export Plug-In . SVG Version: 6.00 Build 0)  -->
<svg version="1.1" id="Слой_1" xmlns="http://www.w3.org/2000/svg" xmlns:xlink="http://www.w3.org/1999/xlink" x="0px" y="0px"
	 viewBox="0 0 100 100" style="enable-background:new 0 0 100 100;" xml:space="preserve">
<style type="text/css">
	.st0{fill-rule:evenodd;clip-rule:evenodd;fill:#2583BC;}
</style>
<g>
	<path class="st0" d="M19.9,10.2C28,3.9,38.2,0.6,48.5,0.1c-0.4,9.3-0.2,18.7-2.8,27.7c-1.9,7-6.9,13.3-13.6,16.3
		C22,48.5,10.8,48.1,0,48.6C0,33.6,7.9,19,19.9,10.2L19.9,10.2z"/>
	<path class="st0" d="M51.5,0c9.1,0.8,18.2,3.1,25.8,8.3c13.6,8.7,22.4,24.2,22.7,40.3c-10-0.3-20.2-0.2-29.8-3.5
		c-6.9-2.4-12.7-7.8-15.1-14.8C51.6,20.7,51.7,10.2,51.5,0L51.5,0z"/>
	<path class="st0" d="M72,54.4c9.1-2.5,18.6-2.6,28-2.8c-0.3,12.7-5.7,25.1-14.9,33.9c-8.8,8.9-21.1,14-33.6,14.5
		c0.2-10.3,0.1-21.1,3.9-30.9C58.1,61.9,64.6,56.5,72,54.4L72,54.4z"/>
	<path class="st0" d="M0,51.6c11.3,0.4,23.4-0.1,33.7,5.3C40.8,60.5,45,68,46.4,75.5c1.7,8.1,1.7,16.3,2,24.5
		C35,99.5,21.9,93.6,12.9,83.7C5,75,0,63.4,0,51.6z"/>
</g>
</svg>
